<svg width="81" height="141" viewBox="0 0 81 141" fill="none" xmlns="http://www.w3.org/2000/svg">
<path fill-rule="evenodd" clip-rule="evenodd" d="M65.8042 0.257333C66.0583 0.149213 66.3519 0.267549 66.4601 0.521644C67.6094 3.22271 68.8423 5.90014 70.082 8.58381L70.2423 8.93065C71.428 11.4971 72.617 14.0705 73.7362 16.6658C76.0754 22.0904 78.1196 27.6322 79.2137 33.4731C82.3488 50.2103 79.219 66.0242 70.6565 81.0378C66.575 88.1945 61.8995 94.4321 55.5842 100.107C55.3074 100.355 55.2374 100.547 55.1624 100.793C55.1555 100.816 55.1485 100.839 55.1413 100.863C55.0591 101.139 54.9497 101.505 54.6003 101.909C54.523 101.998 54.4472 102.086 54.3726 102.173C53.353 103.352 52.5515 104.28 51.2231 105.473C47.5085 108.811 43.2588 111.656 39.0753 114.457C38.2694 114.996 37.4659 115.534 36.6692 116.074C35.3707 116.953 34.072 117.832 32.7735 118.71C24.9009 124.037 17.0332 129.361 9.22911 134.766C9.18197 134.799 9.08405 134.868 8.94418 134.966C8.26061 135.449 6.57511 136.638 4.91893 137.735C3.92206 138.394 2.92317 139.029 2.15059 139.459C1.76811 139.672 1.42038 139.847 1.1478 139.947C1.01717 139.995 0.865417 140.041 0.719101 140.049C0.603197 140.056 0.252264 140.045 0.0987587 139.7C-0.0135422 139.448 0.0999299 139.152 0.352206 139.04C0.4794 138.983 0.617594 138.984 0.737755 139.031C0.7558 139.025 0.777364 139.018 0.80273 139.009C0.999207 138.937 1.2913 138.793 1.66397 138.586C2.40169 138.175 3.37442 137.558 4.367 136.901C6.00454 135.817 7.6617 134.647 8.35698 134.157C8.50402 134.053 8.60804 133.98 8.65976 133.944C16.4684 128.536 24.3408 123.209 32.2129 117.882C33.5116 117.003 34.8102 116.125 36.1085 115.246C36.9147 114.7 37.7246 114.157 38.5342 113.615C42.718 110.814 46.8979 108.015 50.5547 104.729C51.8351 103.579 52.5997 102.694 53.6209 101.513C53.6939 101.428 53.7682 101.342 53.8442 101.255C54.0503 101.017 54.1061 100.832 54.1859 100.567C54.1924 100.546 54.1991 100.524 54.206 100.501C54.3088 100.164 54.4512 99.7805 54.9158 99.363C61.1363 93.7734 65.7482 87.6257 69.7879 80.5424C78.2443 65.7147 81.3182 50.1399 78.2308 33.6572C77.1564 27.9219 75.1449 22.458 72.8179 17.0618C71.704 14.4787 70.52 11.9159 69.3328 9.34648L69.1742 9.00318C67.9351 6.32078 66.696 3.63022 65.5399 0.913184C65.4318 0.659088 65.5501 0.365454 65.8042 0.257333Z" fill="#101C26"/>
</svg>
