<svg width="165" height="184" viewBox="0 0 165 184" fill="none" xmlns="http://www.w3.org/2000/svg">
<path d="M105.537 0.71553C120.045 5.62901 114.372 30.7309 125.112 41.6516C135.127 51.8342 157.662 46.5198 163.434 59.5836C169.1 72.4081 150.709 85.0241 150.469 99.0425C150.209 114.241 169.678 129.44 162.013 142.567C154.324 155.735 131.565 146.504 118.332 154.081C106.516 160.848 104.107 181.308 90.6562 183.426C77.2316 185.539 66.7821 171.415 55.4003 163.989C46.3464 158.082 38.2675 151.402 30.3271 144.066C22.3811 136.725 13.6125 130.147 8.46872 120.63C3.05164 110.607 -0.0940238 99.3512 0.00214271 87.9586C0.100888 76.2604 3.95304 65.0395 9.02695 54.4986C14.3219 43.4984 19.6365 31.2827 30.2158 25.1902C40.7529 19.1221 54.4986 25.4105 66.0628 21.6528C80.4079 16.9915 91.2505 -4.12291 105.537 0.71553Z" fill="#F7E353"/>
</svg>
