<svg width="19" height="19" viewBox="0 0 19 19" fill="none" xmlns="http://www.w3.org/2000/svg">
<path fill-rule="evenodd" clip-rule="evenodd" d="M2.5 0C2.77614 0 3 0.223858 3 0.5C3 0.776142 2.77614 1 2.5 1C1.67157 1 1 1.67157 1 2.5C1 2.77614 0.776142 3 0.5 3C0.223858 3 0 2.77614 0 2.5C0 1.11929 1.11929 0 2.5 0ZM10 9H14.5C14.7761 9 15 9.22386 15 9.5C15 9.77614 14.7761 10 14.5 10H10V14.5C10 14.7761 9.77614 15 9.5 15C9.22386 15 9 14.7761 9 14.5V10H4.5C4.22386 10 4 9.77614 4 9.5C4 9.22386 4.22386 9 4.5 9H9V4.5C9 4.22386 9.22386 4 9.5 4C9.77614 4 10 4.22386 10 4.5V9ZM16 0.5C16 0.776142 16.2239 1 16.5 1C17.3284 1 18 1.67157 18 2.5V2.56155C18 2.8377 18.2239 3.06155 18.5 3.06155C18.7761 3.06155 19 2.8377 19 2.56155V2.5C19 1.11929 17.8807 0 16.5 0C16.2239 0 16 0.223858 16 0.5ZM0 4.5C0 4.22386 0.223858 4 0.5 4C0.776142 4 1 4.22386 1 4.5V5.5C1 5.77614 0.776142 6 0.5 6C0.223858 6 0 5.77614 0 5.5V4.5ZM0.5 7C0.223858 7 0 7.22386 0 7.5V8.5C0 8.77614 0.223858 9 0.5 9C0.776142 9 1 8.77614 1 8.5V7.5C1 7.22386 0.776142 7 0.5 7ZM0 10.5C0 10.2239 0.223858 10 0.5 10C0.776142 10 1 10.2239 1 10.5V11.5C1 11.7761 0.776142 12 0.5 12C0.223858 12 0 11.7761 0 11.5V10.5ZM0.5 13C0.223858 13 0 13.2239 0 13.5V14.5C0 14.7761 0.223858 15 0.5 15C0.776142 15 1 14.7761 1 14.5V13.5C1 13.2239 0.776142 13 0.5 13ZM18 4.5C18 4.22386 18.2239 4 18.5 4C18.7761 4 19 4.22386 19 4.5V5.5C19 5.77614 18.7761 6 18.5 6C18.2239 6 18 5.77614 18 5.5V4.5ZM18.5 7C18.2239 7 18 7.22386 18 7.5V8.5C18 8.77614 18.2239 9 18.5 9C18.7761 9 19 8.77614 19 8.5V7.5C19 7.22386 18.7761 7 18.5 7ZM18 10.5C18 10.2239 18.2239 10 18.5 10C18.7761 10 19 10.2239 19 10.5V11.5C19 11.7761 18.7761 12 18.5 12C18.2239 12 18 11.7761 18 11.5V10.5ZM18.5 13C18.2239 13 18 13.2239 18 13.5V14.5C18 14.7761 18.2239 15 18.5 15C18.7761 15 19 14.7761 19 14.5V13.5C19 13.2239 18.7761 13 18.5 13ZM0 16.5C0 16.2239 0.223858 16 0.5 16C0.776142 16 1 16.2239 1 16.5C1 17.3284 1.67157 18 2.5 18C2.77614 18 3 18.2239 3 18.5C3 18.7761 2.77614 19 2.5 19C1.11929 19 0 17.8807 0 16.5ZM4 0.5C4 0.776142 4.22386 1 4.5 1H5.5C5.77614 1 6 0.776142 6 0.5C6 0.223858 5.77614 0 5.5 0H4.5C4.22386 0 4 0.223858 4 0.5ZM7.5 1C7.22386 1 7 0.776142 7 0.5C7 0.223858 7.22386 0 7.5 0H8.5C8.77614 0 9 0.223858 9 0.5C9 0.776142 8.77614 1 8.5 1H7.5ZM10 0.5C10 0.776142 10.2239 1 10.5 1H11.5C11.7761 1 12 0.776142 12 0.5C12 0.223858 11.7761 0 11.5 0H10.5C10.2239 0 10 0.223858 10 0.5ZM13.5 1C13.2239 1 13 0.776142 13 0.5C13 0.223858 13.2239 0 13.5 0H14.5C14.7761 0 15 0.223858 15 0.5C15 0.776142 14.7761 1 14.5 1H13.5ZM4 18.5C4 18.7761 4.22386 19 4.5 19H5.5C5.77614 19 6 18.7761 6 18.5C6 18.2239 5.77614 18 5.5 18H4.5C4.22386 18 4 18.2239 4 18.5ZM7.5 19C7.22386 19 7 18.7761 7 18.5C7 18.2239 7.22386 18 7.5 18H8.5C8.77614 18 9 18.2239 9 18.5C9 18.7761 8.77614 19 8.5 19H7.5ZM10 18.5C10 18.7761 10.2239 19 10.5 19H11.5C11.7761 19 12 18.7761 12 18.5C12 18.2239 11.7761 18 11.5 18H10.5C10.2239 18 10 18.2239 10 18.5ZM13.5 19C13.2239 19 13 18.7761 13 18.5C13 18.2239 13.2239 18 13.5 18H14.5C14.7761 18 15 18.2239 15 18.5C15 18.7761 14.7761 19 14.5 19H13.5ZM16 18.5C16 18.7761 16.2239 19 16.5 19C17.8807 19 19 17.8807 19 16.5C19 16.2239 18.7761 16 18.5 16C18.2239 16 18 16.2239 18 16.5C18 17.3284 17.3284 18 16.5 18C16.2239 18 16 18.2239 16 18.5Z" fill="#101C26"/>
</svg>
