<svg width="14" height="20" viewBox="0 0 14 20" fill="none" xmlns="http://www.w3.org/2000/svg">
<path fill-rule="evenodd" clip-rule="evenodd" d="M7.0076 0C4.79426 0 3 1.79426 3 4.0076V10.0308C3 12.2441 4.79426 14.0384 7.0076 14.0384C9.22094 14.0384 11.0152 12.2441 11.0152 10.0308V4.0076C11.0152 1.79426 9.22094 0 7.0076 0ZM4 10.0308V4.0076C4 2.34655 5.34655 1 7.0076 1C8.66865 1 10.0152 2.34655 10.0152 4.0076V10.0308C10.0152 11.6919 8.66865 13.0384 7.0076 13.0384C5.34655 13.0384 4 11.6919 4 10.0308ZM8 16.9291V19H6V16.9291C6.3266 16.9758 6.66048 17 7 17C7.33952 17 7.6734 16.9758 8 16.9291ZM5 19V16.7101C2.10851 15.8496 0 13.171 0 10V9.5C0 9.22386 0.223858 9 0.5 9C0.776142 9 1 9.22386 1 9.5V10C1 13.3137 3.68629 16 7 16C10.3137 16 13 13.3137 13 10V9.5C13 9.22386 13.2239 9 13.5 9C13.7761 9 14 9.22386 14 9.5V10C14 13.171 11.8915 15.8496 9 16.7101V19H11.5C11.7761 19 12 19.2239 12 19.5C12 19.7761 11.7761 20 11.5 20H2.5C2.22386 20 2 19.7761 2 19.5C2 19.2239 2.22386 19 2.5 19H5Z" fill="#101C26"/>
</svg>
