<svg width="25" height="24" viewBox="0 0 25 24" fill="none" xmlns="http://www.w3.org/2000/svg">
<path fill-rule="evenodd" clip-rule="evenodd" d="M15.5778 12.9407L19.0345 14.5119C19.927 14.9176 20.5 15.8075 20.5 16.7878V17.5C20.5 18.8807 19.3807 20 18 20H7C5.61929 20 4.5 18.8807 4.5 17.5V16.7878C4.5 15.8075 5.07301 14.9176 5.96549 14.5119L9.42216 12.9407C8.25209 12.0255 7.5 10.6006 7.5 9C7.5 6.23858 9.73858 4 12.5 4C15.2614 4 17.5 6.23858 17.5 9C17.5 10.6006 16.7479 12.0255 15.5778 12.9407ZM10.4613 13.5668L6.3793 15.4223C5.8438 15.6657 5.5 16.1996 5.5 16.7878V17.5C5.5 18.3284 6.17157 19 7 19H18C18.8284 19 19.5 18.3284 19.5 17.5V16.7878C19.5 16.1996 19.1562 15.6657 18.6207 15.4223L14.5387 13.5668C13.9161 13.8452 13.2261 14 12.5 14C11.7739 14 11.0839 13.8452 10.4613 13.5668ZM16.5 9C16.5 11.2091 14.7091 13 12.5 13C10.2909 13 8.5 11.2091 8.5 9C8.5 6.79086 10.2909 5 12.5 5C14.7091 5 16.5 6.79086 16.5 9Z" fill="#101C26"/>
</svg>
