<?xml version="1.0" encoding="UTF-8" standalone="no" ?>
<!DOCTYPE svg PUBLIC "-//W3C//DTD SVG 1.1//EN" "http://www.w3.org/Graphics/SVG/1.1/DTD/svg11.dtd">
<svg xmlns="http://www.w3.org/2000/svg" xmlns:xlink="http://www.w3.org/1999/xlink" version="1.1" width="1080" height="1080" viewBox="0 0 1080 1080" xml:space="preserve">
<desc>Created with Fabric.js 5.2.4</desc>
<defs>
</defs>
<g transform="matrix(1 0 0 1 540 540)" id="20c4e03c-5334-4e39-85a0-305344831eba"  >
<rect style="stroke: none; stroke-width: 1; stroke-dasharray: none; stroke-linecap: butt; stroke-dashoffset: 0; stroke-linejoin: miter; stroke-miterlimit: 4; fill: rgb(255,255,255); fill-rule: nonzero; opacity: 1; visibility: hidden;" vector-effect="non-scaling-stroke"  x="-540" y="-540" rx="0" ry="0" width="1080" height="1080" />
</g>
<g transform="matrix(1 0 0 1 540 540)" id="bcf8677c-4e70-4f0d-8acb-0700d1265f91"  >
</g>
<g transform="matrix(54 0 0 54 540 540)"  >
<path style="stroke: rgb(0,0,0); stroke-width: 2; stroke-dasharray: none; stroke-linecap: round; stroke-dashoffset: 0; stroke-linejoin: round; stroke-miterlimit: 4; fill: none; fill-rule: nonzero; opacity: 1;"  transform=" translate(-10, -10)" d="M 10 11 L 10 6 M 10 14 L 10.01 14 M 19 10 C 19 14.97056274847714 14.97056274847714 19 10 19 C 5.029437251522859 19 1 14.97056274847714 1 10 C 1 5.029437251522859 5.029437251522859 1 10 1 C 14.97056274847714 1 19 5.029437251522857 19 9.999999999999998 Z" stroke-linecap="round" />
</g>
</svg>