<svg width="24" height="24" viewBox="0 0 24 24" fill="none" xmlns="http://www.w3.org/2000/svg">
<path fill-rule="evenodd" clip-rule="evenodd" d="M20.9942 3.42376C21.2955 5.23886 21.0488 7.06451 20.307 8.70596C20.2261 8.885 20.0479 9.00007 19.8514 9.00007H18.7071L19.3447 9.63768C19.5178 9.81074 19.5401 10.0836 19.3976 10.2825C17.9901 12.246 15.8704 13.5881 13.4393 13.9933C12.5328 14.1444 11.6093 14.1585 10.6996 14.0357C9.88602 14.6766 9.15814 15.0001 8.5 15.0001C8.22386 15.0001 8 14.7762 8 14.5001C8 14.2239 8.22386 14.0001 8.5 14.0001C8.89025 14.0001 9.38367 13.7802 9.96917 13.3364C9.28369 8.4219 12.6364 3.82758 17.5607 3.00687C18.559 2.84048 19.5779 2.84016 20.5763 3.00589C20.6778 3.02148 20.7754 3.06835 20.8536 3.14651C20.9317 3.22468 20.9786 3.32228 20.9942 3.42376ZM20.1123 4.59488L17.8536 6.85362C17.6583 7.04888 17.3417 7.04888 17.1464 6.85362C16.9512 6.65836 16.9512 6.34178 17.1464 6.14651L19.4044 3.88861C18.8434 3.86578 18.2806 3.90067 17.7251 3.99327C13.5631 4.68692 10.6608 8.40546 10.8935 12.5235C11.274 12.1481 11.6821 11.7005 12.1159 11.18C12.2927 10.9678 12.608 10.9392 12.8201 11.116C13.0322 11.2927 13.0609 11.608 12.8841 11.8202C12.478 12.3075 12.0894 12.7394 11.7171 13.1156C12.2378 13.129 12.7595 13.0928 13.2749 13.0069C15.3002 12.6693 17.0813 11.6036 18.3299 10.0371L17.1464 8.85362C16.8315 8.53864 17.0545 8.00007 17.5 8.00007H19.5218C19.9588 6.92321 20.1616 5.76649 20.1123 4.59488ZM20.5 12.0001C20.2239 12.0001 20 12.2239 20 12.5001V18.5001C20 19.3285 19.3284 20.0001 18.5 20.0001H5.5C4.67157 20.0001 4 19.3285 4 18.5001V5.50007C4 4.67164 4.67157 4.00007 5.5 4.00007H11.5C11.7761 4.00007 12 3.77621 12 3.50007C12 3.22393 11.7761 3.00007 11.5 3.00007H5.5C4.11929 3.00007 3 4.11936 3 5.50007V18.5001C3 19.8808 4.11929 21.0001 5.5 21.0001H18.5C19.8807 21.0001 21 19.8808 21 18.5001V12.5001C21 12.2239 20.7761 12.0001 20.5 12.0001Z" fill="white"/>
</svg>
